<?xml version="1.0" encoding="utf-8"?>
<!-- Generator: Adobe Illustrator 16.0.3, SVG Export Plug-In . SVG Version: 6.00 Build 0)  -->
<!DOCTYPE svg PUBLIC "-//W3C//DTD SVG 1.1//EN" "http://www.w3.org/Graphics/SVG/1.1/DTD/svg11.dtd">
<svg version="1.1" xmlns="http://www.w3.org/2000/svg" xmlns:xlink="http://www.w3.org/1999/xlink" x="0px" y="0px"
	 width="1700.787px" height="1700.787px" viewBox="0 0 1700.787 1700.787" enable-background="new 0 0 1700.787 1700.787"
	 xml:space="preserve">
<g id="Capa_1">
	<rect fill="#296881" width="1700.787" height="1700.787"/>
	<g>
		<g>
			<path fill="#0E414C" d="M528.418,544.24c0-23.386,16.57-52.086,36.823-63.779l286.972-165.682
				c20.253-11.693,53.394-11.693,73.646,0l286.969,165.682c20.253,11.693,36.823,40.394,36.823,63.779v331.367
				c0,23.385-16.57,52.086-36.823,63.779l-286.969,165.68c-20.253,11.693-53.394,11.693-73.646,0l-286.972-165.68
				c-20.253-11.693-36.823-40.395-36.823-63.779V544.24z"/>
		</g>
		<g>
			<path d="M495.347,539.99c0-23.386,16.57-52.086,36.823-63.779l286.971-165.683c20.253-11.693,53.394-11.693,73.646,0
				l286.969,165.683c20.253,11.693,36.823,40.394,36.823,63.779v331.367c0,23.385-16.57,52.086-36.823,63.779l-286.969,165.678
				c-20.253,11.693-53.394,11.693-73.646,0L532.17,935.136c-20.253-11.693-36.823-40.395-36.823-63.779V539.99z"/>
		</g>
		<polyline fill="#211F1F" points="864.235,334.057 1186.018,519.836 1186.018,891.394 864.235,1077.167 		"/>
		<path fill="#FFFFFF" stroke="#FFFFFF" stroke-width="6" stroke-miterlimit="10" d="M1122,560.712L942.164,865.704
			c-2.811,4.59-7.282,6.879-13.42,6.879c-5.798,0-11.208-1.977-16.207-5.93c-4.997-3.959-7.499-9.012-7.499-15.16
			c0-5.453,1.756-11.25,5.272-17.402l179.959-304.657c2.965-4.807,7.601-7.215,13.905-7.215c5.604,0,10.898,1.891,15.885,5.669
			c4.984,3.777,7.479,8.743,7.479,14.895C1127.539,548.582,1125.692,554.559,1122,560.712z"/>
		<path fill="#FFFFFF" stroke="#FFFFFF" stroke-width="0.15" stroke-miterlimit="10" d="M847.881,689.952v21.973
			c0,11.27-5.763,20.286-17.313,27.049L606.68,871.462c-6.087,4.063-12.174,6.098-18.267,6.098c-7.215,0-13.702-2.816-19.448-8.471
			c-5.753-5.637-8.627-12.531-8.627-20.658c0-10.613,4.167-18.398,12.514-23.371l209.401-123.913L572.755,577.958
			c-8.275-5.427-12.417-13.454-12.417-24.069c0-8.138,2.874-15.04,8.627-20.688c5.746-5.657,12.233-8.477,19.448-8.477
			c5.642,0,11.73,2.028,18.267,6.085l223.978,132.094C842.143,669.211,847.881,678.233,847.881,689.952z"/>
	</g>
	<g>
		<g>
			<path fill="#0E414C" d="M181.158,1239.513c0-57.842,43.232-123.084,96.502-145.631c16.286-6.857,43.841-12.422,61.514-12.422
				c20.324,0,51.624,7.27,69.865,16.229c17.57,8.701,41.748,28.205,53.969,43.535c1.001,1.26,1.813,3.582,1.813,5.189
				c0,4.604-3.734,8.338-8.335,8.338c-2.224,0-5.146-1.41-6.529-3.146c-27.024-33.984-67.392-53.473-110.756-53.473
				c-77.98,0-141.424,63.455-141.424,141.406c0,77.953,63.444,141.438,141.424,141.438c43.354,0,83.732-19.486,110.756-53.473
				c1.383-1.738,4.305-3.15,6.529-3.15c4.602,0,8.335,3.738,8.335,8.338c0,1.607-0.812,3.936-1.813,5.193
				c-12.222,15.328-36.397,34.832-53.969,43.535c-18.111,8.959-49.21,16.234-69.417,16.234c-0.115,0-0.305,0-0.421,0
				C251.96,1397.599,181.158,1326.753,181.158,1239.513z"/>
			<path fill="#0E414C" d="M595.578,1397.021c-50.621,0-91.708-41.084-91.708-91.707s41.087-91.707,91.708-91.707
				s91.706,41.084,91.706,91.707c0,20.969-12.034,50.02-26.858,64.848c-14.744,14.828-43.682,26.861-64.593,26.861
				c-0.071,0-0.184-0.002-0.253-0.002H595.578z M520.546,1305.313c0,41.373,33.661,75.035,75.034,75.035
				c41.372,0,75.033-33.662,75.033-75.035s-33.661-75.031-75.033-75.031C554.207,1230.282,520.546,1263.94,520.546,1305.313z"/>
			<path fill="#0E414C" d="M860.281,1389.626v-95.063c0-35.975-29.268-65.234-65.238-65.234c-35.97,0-65.237,29.273-65.237,65.234
				v95.043c0,4.604-3.734,8.336-8.339,8.336c-4.601,0-8.336-3.732-8.336-8.336v-95.043c0-45.166,36.748-81.912,81.912-81.912
				c45.166,0,81.911,36.746,81.911,81.912v95.043v0.02c0,4.602-3.733,8.338-8.336,8.338S860.281,1394.228,860.281,1389.626z"/>
			<path fill="#0E414C" d="M907.788,1368.259c-0.439-0.932-0.799-2.527-0.799-3.557c0-4.602,3.737-8.336,8.341-8.336
				c3.014,0,6.434,2.24,7.641,5c4.959,10.947,18.735,19.834,30.756,19.834c18.635,0,33.764-15.127,33.764-33.768
				c0-18.633-15.121-33.758-33.752-33.764c-27.826-0.018-50.408-22.615-50.408-50.439c0-27.842,22.595-50.438,50.438-50.438
				c17.939,0,38.52,13.256,45.932,29.594c0.439,0.932,0.799,2.523,0.799,3.557c0,4.604-3.736,8.336-8.338,8.336
				c-3.015,0-6.437-2.24-7.644-5.002c-4.958-10.943-18.735-19.83-30.752-19.83c-18.64,0-33.768,15.127-33.768,33.768
				c0,18.629,15.121,33.756,33.754,33.764c27.843,0,50.438,22.6,50.438,50.439c0,27.842-22.595,50.438-50.438,50.438h-0.013
				C935.809,1397.835,915.225,1384.573,907.788,1368.259z"/>
			<path fill="#0E414C" d="M1129.969,1397.021c-50.621,0-91.705-41.084-91.705-91.707s41.084-91.707,91.705-91.707
				c50.625,0,91.708,41.084,91.708,91.707c0,20.969-12.034,50.02-26.859,64.848c-14.744,14.828-43.683,26.861-64.595,26.861
				c-0.068,0-0.182-0.002-0.25-0.002H1129.969z M1054.937,1305.313c0,41.373,33.662,75.035,75.036,75.035
				c41.371,0,75.033-33.662,75.033-75.035s-33.662-75.031-75.033-75.031C1088.599,1230.282,1054.937,1263.94,1054.937,1305.313z"/>
			<path fill="#0E414C" d="M1245.266,1304.839V1090.55c0-4.605,3.736-8.34,8.337-8.34c4.602,0,8.337,3.734,8.337,8.34v214.289
				c0,41.605,33.851,75.451,75.452,75.451c4.599,0,8.335,3.734,8.335,8.336c0,4.604-3.736,8.336-8.335,8.336
				C1286.54,1396.962,1245.266,1355.692,1245.266,1304.839z"/>
			<path fill="#0E414C" d="M1492.112,1393.28c-0.806,2.033-3.153,4.219-5.243,4.881c-17.094,5.381-44.483,4.396-61.142-2.207
				c-46.916-18.588-69.907-71.75-51.318-118.666c18.591-46.916,71.752-69.908,118.668-51.318
				c16.659,6.602,37.292,24.645,46.062,40.271c1.07,1.912,1.283,5.113,0.476,7.148c-0.732,1.852-2.832,3.949-4.684,4.682
				l-113.05,44.764c-1.731,0.723-4.553,0.748-6.295,0.059c-4.274-1.693-6.371-6.541-4.68-10.82c0.754-1.898,2.922-4.023,4.836-4.742
				l103.592-41.006c-7.006-9.385-21.523-20.51-32.407-24.834c-38.312-15.182-81.842,3.641-97.021,41.957
				c-15.182,38.318,3.646,81.84,41.955,97.02c13.622,5.387,36.014,6.197,49.985,1.809c1.563-0.496,4.068-0.404,5.593,0.197
				c2.028,0.807,4.212,3.146,4.875,5.227C1492.804,1389.263,1492.714,1391.761,1492.112,1393.28z"/>
		</g>
		<g>
			<path fill="#FFFFFF" stroke="#FFFFFF" stroke-width="4" stroke-miterlimit="10" d="M161.357,1233.265
				c0-57.846,43.232-123.088,96.503-145.633c16.285-6.857,43.839-12.422,61.513-12.422c20.324,0,51.623,7.271,69.865,16.229
				c17.57,8.699,41.748,28.205,53.97,43.535c1.001,1.26,1.812,3.584,1.812,5.191c0,4.6-3.734,8.336-8.335,8.336
				c-2.225,0-5.146-1.41-6.528-3.146c-27.024-33.982-67.393-53.475-110.756-53.475c-77.982,0-141.425,63.457-141.425,141.408
				c0,77.953,63.443,141.438,141.425,141.438c43.353,0,83.732-19.486,110.756-53.473c1.382-1.738,4.304-3.148,6.528-3.148
				c4.602,0,8.335,3.734,8.335,8.336c0,1.609-0.811,3.934-1.812,5.191c-12.222,15.332-36.398,34.834-53.97,43.537
				c-18.112,8.959-49.211,16.232-69.417,16.232c-0.117,0-0.307,0-0.421,0C232.16,1391.347,161.357,1320.501,161.357,1233.265z"/>
			<path fill="#FFFFFF" stroke="#FFFFFF" stroke-width="4" stroke-miterlimit="10" d="M575.777,1390.771
				c-50.621,0-91.708-41.084-91.708-91.707s41.086-91.707,91.708-91.707c50.62,0,91.705,41.084,91.705,91.707
				c0,20.967-12.033,50.02-26.859,64.846c-14.741,14.83-43.681,26.863-64.592,26.863c-0.07,0-0.182-0.002-0.252-0.002H575.777z
				 M500.745,1299.063c0,41.373,33.661,75.033,75.034,75.033c41.372,0,75.033-33.66,75.033-75.033s-33.661-75.033-75.033-75.033
				C534.406,1224.03,500.745,1257.69,500.745,1299.063z"/>
			<path fill="#FFFFFF" stroke="#FFFFFF" stroke-width="4" stroke-miterlimit="10" d="M840.479,1383.378v-95.064
				c0-35.975-29.269-65.238-65.237-65.238c-35.97,0-65.236,29.275-65.236,65.238v95.041c0,4.604-3.736,8.336-8.339,8.336
				c-4.601,0-8.337-3.732-8.337-8.336v-95.041c0-45.168,36.747-81.912,81.912-81.912c45.164,0,81.912,36.744,81.912,81.912v95.041
				v0.023c0,4.598-3.734,8.336-8.337,8.336C844.216,1391.714,840.479,1387.976,840.479,1383.378z"/>
			<path fill="#FFFFFF" stroke="#FFFFFF" stroke-width="4" stroke-miterlimit="10" d="M887.985,1362.009
				c-0.437-0.932-0.795-2.525-0.795-3.557c0-4.602,3.734-8.336,8.339-8.336c3.013,0,6.434,2.242,7.641,5.002
				c4.959,10.945,18.735,19.83,30.754,19.83c18.638,0,33.766-15.129,33.766-33.764s-15.123-33.76-33.752-33.766
				c-27.826-0.018-50.41-22.615-50.41-50.439c0-27.842,22.596-50.439,50.439-50.439c17.939,0,38.521,13.258,45.935,29.596
				c0.436,0.932,0.795,2.525,0.795,3.557c0,4.602-3.734,8.336-8.339,8.336c-3.012,0-6.434-2.242-7.642-5.002
				c-4.958-10.945-18.735-19.828-30.752-19.828c-18.64,0-33.768,15.127-33.768,33.764c0,18.631,15.121,33.758,33.753,33.766
				c27.844,0,50.439,22.596,50.439,50.438s-22.596,50.439-50.439,50.439h-0.012C916.009,1391.583,895.422,1378.323,887.985,1362.009
				z"/>
			<path fill="#FFFFFF" stroke="#FFFFFF" stroke-width="4" stroke-miterlimit="10" d="M1110.167,1390.771
				c-50.619,0-91.704-41.084-91.704-91.707s41.085-91.707,91.704-91.707c50.626,0,91.709,41.084,91.709,91.707
				c0,20.967-12.034,50.02-26.86,64.846c-14.743,14.83-43.682,26.863-64.595,26.863c-0.069,0-0.18-0.002-0.25-0.002H1110.167z
				 M1035.135,1299.063c0,41.373,33.662,75.033,75.036,75.033c41.372,0,75.034-33.66,75.034-75.033s-33.662-75.033-75.034-75.033
				C1068.797,1224.03,1035.135,1257.69,1035.135,1299.063z"/>
			<path fill="#FFFFFF" stroke="#FFFFFF" stroke-width="4" stroke-miterlimit="10" d="M1225.465,1298.591v-214.293
				c0-4.604,3.736-8.338,8.337-8.338c4.602,0,8.338,3.734,8.338,8.338v214.293c0,41.604,33.849,75.449,75.449,75.449
				c4.601,0,8.336,3.734,8.336,8.336c0,4.604-3.735,8.336-8.336,8.336C1266.739,1390.712,1225.465,1349.442,1225.465,1298.591z"/>
			<path fill="#FFFFFF" stroke="#FFFFFF" stroke-width="4" stroke-miterlimit="10" d="M1472.312,1387.03
				c-0.805,2.033-3.153,4.219-5.243,4.881c-17.094,5.381-44.483,4.396-61.141-2.209c-46.918-18.586-69.908-71.748-51.319-118.664
				c18.59-46.914,71.752-69.906,118.667-51.318c16.66,6.602,37.294,24.645,46.062,40.271c1.071,1.912,1.284,5.113,0.477,7.15
				c-0.733,1.85-2.832,3.947-4.685,4.682l-113.051,44.762c-1.729,0.725-4.549,0.75-6.293,0.061c-4.273-1.695-6.373-6.543-4.68-10.82
				c0.754-1.9,2.92-4.025,4.836-4.744l103.593-41.006c-7.007-9.385-21.524-20.51-32.407-24.834
				c-38.313-15.182-81.842,3.643-97.022,41.957c-15.181,38.316,3.646,81.836,41.958,97.02c13.619,5.385,36.012,6.197,49.982,1.809
				c1.563-0.496,4.068-0.404,5.593,0.195c2.028,0.809,4.213,3.146,4.876,5.23C1473.003,1383.009,1472.912,1385.511,1472.312,1387.03
				z"/>
		</g>
	</g>
</g>
<g id="Capa_2">
</g>
</svg>
